<?xml version="1.0" encoding="utf-8"?>
<!-- Generator: Adobe Illustrator 16.0.4, SVG Export Plug-In . SVG Version: 6.00 Build 0)  -->
<!DOCTYPE svg PUBLIC "-//W3C//DTD SVG 1.1//EN" "http://www.w3.org/Graphics/SVG/1.1/DTD/svg11.dtd">
<svg version="1.1" id="レイヤー_1" xmlns="http://www.w3.org/2000/svg" xmlns:xlink="http://www.w3.org/1999/xlink" x="0px"
	 y="0px" width="154px" height="154px" viewBox="0 0 154 154" enable-background="new 0 0 154 154" xml:space="preserve">
<g>
	<g>
		<path d="M62.846,45.632v0.708l1.694-0.008c0.524,0.094,0.607,0.34,0.602,0.579l-9.676,28.653l-9.563-28.479
			c-0.053-0.326-0.021-0.643,0.519-0.745h1.284l0.354-0.086v-0.707H39.7l-0.354,0.084v0.708l2.057-0.008
			c0.611,0.099,1.081,0.385,1.398,0.853l11.251,33.531l0.003,25.936c-0.052,0.531-0.239,0.871-0.561,1.006h-2.01l-0.354,0.088v0.707
			h8.358l0.353-0.086v-0.709h-2.406c-0.327-0.137-0.515-0.484-0.561-0.998V80.717L67.929,47.78c0.275-0.825,0.845-1.31,1.633-1.439
			h1.642l0.354-0.086v-0.707h-8.358L62.846,45.632z M102.198,45.77v0.686h1.961c0.158,0.016,0.272,0.074,0.345,0.169
			c0.115,0.157,0.134,0.44,0.062,0.803l-9.938,39.212l-9.856-39.145c-0.09-0.401-0.073-0.704,0.045-0.867
			c0.07-0.096,0.185-0.157,0.31-0.173h1.682l0.343-0.082v-0.691h-8.006l-0.345,0.086v0.686h2.026
			c0.31,0.032,0.701,0.232,0.795,0.959v59.069c-0.019,0.631-0.204,1.029-0.552,1.186h-1.925l-0.345,0.086v0.689h8.008l0.343-0.09
			v-0.686h-2.296c-0.279-0.125-0.452-0.416-0.518-0.818V54.699l10.289,41.704l10.355-41.718v51.923
			c-0.028,0.393-0.145,0.883-0.541,1.062h-1.899l-0.344,0.086v0.689h8.004l0.345-0.09v-0.686h-2.319
			c-0.372-0.17-0.495-0.627-0.528-0.957l-0.005-59.321c0.088-0.576,0.354-0.891,0.755-0.936h1.753l0.345-0.082v-0.691h-8.005
			L102.198,45.77z M146.532,59.962c-1.51-2.186-2.957-4.289-4.145-6.413c-0.752-2.1-1.604-4.163-2.562-6.18
			c-0.723-2.514-1.232-5.189-1.724-7.809c-1.176-6.261-2.391-12.735-6.61-16.964c-4.22-4.227-10.694-5.454-16.953-6.639
			c-2.619-0.496-5.296-1.009-7.81-1.738c-2.014-0.957-4.071-1.811-6.166-2.565c-2.124-1.191-4.227-2.644-6.414-4.158
			C88.839,3.812,83.347,0.005,77.05,0c-6.279,0-11.774,3.795-17.087,7.467c-2.187,1.511-4.291,2.958-6.415,4.145
			c-2.099,0.752-4.16,1.606-6.178,2.561c-2.513,0.723-5.189,1.231-7.808,1.724c-6.262,1.175-12.737,2.389-16.965,6.611
			c-4.229,4.222-5.454,10.694-6.64,16.956c-0.496,2.617-1.008,5.292-1.736,7.805c-0.956,2.015-1.811,4.072-2.567,6.168
			c-1.191,2.125-2.642,4.229-4.158,6.413C3.813,65.163,0.005,70.655,0,76.94c-0.004,6.285,3.794,11.783,7.469,17.097
			c1.511,2.189,2.958,4.293,4.146,6.418c0.752,2.098,1.604,4.158,2.558,6.174c0.725,2.516,1.233,5.191,1.725,7.812
			c1.175,6.262,2.39,12.734,6.612,16.963c4.221,4.227,10.694,5.453,16.955,6.639c2.617,0.496,5.293,1.008,7.804,1.738
			c2.015,0.955,4.073,1.811,6.169,2.566c2.124,1.191,4.226,2.643,6.411,4.156c5.312,3.684,10.805,7.492,17.091,7.496h0.013
			c6.278,0,11.772-3.797,17.086-7.467c2.188-1.512,4.292-2.961,6.418-4.146c2.097-0.752,4.156-1.604,6.173-2.559
			c2.514-0.725,5.19-1.232,7.811-1.725c6.261-1.176,12.737-2.391,16.963-6.609c4.229-4.221,5.454-10.693,6.641-16.953
			c0.497-2.623,1.009-5.303,1.74-7.818c0.953-2.008,1.806-4.062,2.562-6.152c1.19-2.127,2.644-4.232,4.162-6.424
			c3.681-5.309,7.488-10.799,7.493-17.083C154.007,70.775,150.206,65.278,146.532,59.962z M140.484,50.766
			c0.407,0.985,0.903,1.967,1.448,2.944c0.865,2.413,1.604,4.875,2.197,7.382c-0.11-0.158-0.221-0.317-0.329-0.477
			c-2.119-3.066-4.121-5.964-5.378-9.001c-1.328-3.214-2.034-6.966-2.714-10.595c-0.021-0.11-0.042-0.221-0.062-0.331
			c1.383,2.228,2.625,4.524,3.736,6.874C139.703,48.666,140.062,49.741,140.484,50.766z M146.029,69.345
			c0.002,0.003,0.003,0.006,0.005,0.009c0.013,0.024,0.022,0.048,0.033,0.074c0.166,0.347,0.321,0.688,0.465,1.027
			c0.056,0.131,0.105,0.261,0.158,0.392c0.093,0.23,0.184,0.458,0.267,0.683c0.055,0.148,0.103,0.292,0.151,0.439
			c0.07,0.207,0.14,0.415,0.201,0.618c0.045,0.148,0.087,0.296,0.127,0.444c0.056,0.2,0.106,0.401,0.153,0.6
			c0.035,0.142,0.066,0.286,0.096,0.428c0.043,0.205,0.079,0.408,0.113,0.611c0.022,0.135,0.046,0.267,0.063,0.402
			c0.03,0.222,0.053,0.443,0.073,0.664c0.012,0.11,0.024,0.221,0.032,0.333c0.024,0.33,0.037,0.657,0.037,0.985v0.005
			c0,0.329-0.015,0.66-0.039,0.993c-0.006,0.101-0.019,0.201-0.028,0.306c-0.022,0.23-0.045,0.462-0.078,0.693
			c-0.018,0.123-0.04,0.248-0.061,0.373c-0.035,0.215-0.073,0.428-0.12,0.643c-0.027,0.131-0.059,0.268-0.089,0.4
			c-0.05,0.209-0.104,0.42-0.163,0.633c-0.038,0.137-0.078,0.275-0.12,0.414c-0.065,0.215-0.136,0.43-0.211,0.646
			c-0.048,0.139-0.092,0.275-0.145,0.414c-0.085,0.234-0.18,0.469-0.276,0.707c-0.05,0.125-0.098,0.248-0.152,0.375
			c-0.137,0.322-0.285,0.648-0.443,0.977c-0.021,0.043-0.038,0.084-0.06,0.129c0,0.002-0.001,0.002-0.001,0.006
			c0.299-2.646,0.448-5.252,0.448-7.769C146.467,74.528,146.32,71.961,146.029,69.345z M146.235,85.391
			c0.077-0.148,0.16-0.305,0.231-0.451c0.115-0.24,0.216-0.473,0.321-0.709c0.073-0.162,0.154-0.33,0.224-0.492
			c0.089-0.209,0.164-0.42,0.246-0.629c0.068-0.178,0.145-0.359,0.209-0.537c0.063-0.178,0.114-0.352,0.172-0.529
			c0.067-0.203,0.141-0.408,0.198-0.611c0.038-0.133,0.065-0.262,0.101-0.393c0.063-0.242,0.133-0.484,0.186-0.723
			c0.019-0.086,0.03-0.174,0.048-0.26c0.056-0.281,0.111-0.561,0.153-0.84c0.011-0.072,0.014-0.148,0.025-0.223
			c0.084-0.648,0.134-1.293,0.136-1.936c0-0.358-0.013-0.72-0.04-1.08c-0.003-0.043-0.01-0.088-0.015-0.13
			c-0.054-0.678-0.153-1.364-0.305-2.06c-0.005-0.022-0.015-0.048-0.02-0.072c-0.076-0.345-0.164-0.694-0.265-1.046
			c-0.007-0.019-0.015-0.042-0.02-0.061c-0.105-0.357-0.22-0.713-0.35-1.076c-0.019-0.056-0.045-0.112-0.063-0.168
			c-0.121-0.331-0.248-0.661-0.39-0.998c-0.051-0.123-0.115-0.253-0.169-0.376c-0.12-0.272-0.236-0.542-0.369-0.819
			c-0.113-0.233-0.241-0.475-0.364-0.715c-0.086-0.167-0.163-0.33-0.254-0.5c-0.204-1.56-0.453-3.088-0.744-4.561
			c2.818,4.206,5.388,8.716,5.384,13.661c-0.003,4.947-2.581,9.453-5.407,13.658c0.299-1.496,0.551-3.027,0.753-4.566
			C145.986,85.895,146.109,85.643,146.235,85.391z M145.393,68.065c0.395,3.058,0.596,6.064,0.596,8.934
			c0,2.917-0.206,5.96-0.61,9.046c-0.252,1.934-0.586,3.855-0.99,5.713c-0.336,0.488-0.673,0.977-1.012,1.463
			c-2.042,2.947-4.154,5.996-5.436,9.078c-1.355,3.26-2.07,7.035-2.762,10.689c-0.096,0.504-0.191,1.01-0.289,1.518
			c-1.044,1.605-2.165,3.186-3.33,4.689l-0.024,0.029c-3.586,4.631-7.757,8.793-12.395,12.377c-1.503,1.164-3.095,2.289-4.731,3.35
			c-0.504,0.096-1.011,0.191-1.515,0.287c-3.655,0.686-7.433,1.393-10.694,2.742c-3.085,1.277-6.138,3.387-9.092,5.428
			c-0.485,0.334-0.973,0.672-1.461,1.004c-1.852,0.398-3.772,0.732-5.711,0.98c-3.045,0.393-6.052,0.594-8.937,0.594
			c-2.912,0-5.95-0.203-9.035-0.605l-0.01-0.004c-1.953-0.254-3.874-0.588-5.713-0.99c-0.482-0.332-0.963-0.664-1.442-0.996
			c-2.955-2.049-6.009-4.166-9.098-5.451c-3.263-1.354-7.046-2.07-10.705-2.766l-1.502-0.285c-1.621-1.057-3.201-2.176-4.698-3.334
			l-0.021-0.018c-4.63-3.592-8.794-7.762-12.376-12.393l0-0.006c-1.164-1.504-2.29-3.096-3.346-4.729
			c-0.099-0.51-0.194-1.02-0.29-1.533c-0.686-3.646-1.395-7.42-2.743-10.676c-1.275-3.086-3.292-6.004-5.426-9.092
			c-0.335-0.486-0.67-0.973-1.005-1.465c-0.392-1.809-0.718-3.715-0.973-5.666l-0.005-0.043c-0.396-3.045-0.596-6.053-0.596-8.937
			c0-2.914,0.204-5.956,0.608-9.041l0.001-0.001c0.253-1.94,0.587-3.862,0.99-5.716c0.333-0.485,0.668-0.968,1.003-1.449
			c2.047-2.951,4.163-6.005,5.445-9.089c1.353-3.259,2.068-7.035,2.76-10.688c0.096-0.505,0.192-1.014,0.29-1.518
			c1.045-1.607,2.159-3.178,3.313-4.671l0.041-0.051c3.591-4.633,7.76-8.796,12.394-12.377l0.001-0.001
			c1.506-1.165,3.098-2.29,4.731-3.346c0.512-0.099,1.024-0.195,1.538-0.291c3.645-0.686,7.416-1.393,10.67-2.74
			c3.092-1.279,6.151-3.394,9.109-5.438c0.48-0.333,0.961-0.666,1.443-0.995c1.828-0.395,3.741-0.725,5.684-0.976l0.028-0.003
			c3.054-0.396,6.06-0.597,8.936-0.597c2.916,0,5.959,0.205,9.044,0.609c1.954,0.256,3.877,0.59,5.715,0.992
			c0.483,0.331,0.966,0.666,1.446,1c3.09,2.142,6.007,4.163,9.093,5.447c3.261,1.354,7.04,2.071,10.694,2.764l1.514,0.291
			c1.609,1.044,3.19,2.164,4.697,3.334l0.022,0.014c4.627,3.587,8.79,7.758,12.374,12.392l0.003,0.006
			c1.164,1.505,2.291,3.098,3.347,4.73c0.098,0.504,0.191,1.009,0.286,1.518c0.687,3.652,1.396,7.43,2.744,10.689
			c1.276,3.085,3.385,6.136,5.424,9.09c0.337,0.488,0.674,0.974,1.01,1.465C144.807,64.174,145.137,66.094,145.393,68.065z
			 M127.507,127.59c0.242-0.244,0.478-0.496,0.706-0.76c0.151-0.176,0.295-0.367,0.438-0.553c0.072-0.09,0.147-0.178,0.218-0.271
			c0.197-0.268,0.388-0.549,0.573-0.834c0.013-0.02,0.025-0.037,0.036-0.055c0.183-0.285,0.356-0.582,0.523-0.889
			c0.017-0.027,0.032-0.047,0.047-0.076c0.158-0.289,0.308-0.592,0.456-0.902c0.024-0.047,0.05-0.09,0.072-0.141
			c0.113-0.24,0.219-0.494,0.327-0.744c0.055-0.133,0.113-0.252,0.166-0.387c0.072-0.176,0.139-0.369,0.209-0.551
			c0.083-0.223,0.17-0.438,0.249-0.668c0.032-0.092,0.062-0.189,0.092-0.283c0.109-0.326,0.22-0.648,0.322-0.99
			c0.936-1.209,1.841-2.461,2.701-3.74c-1.034,5.127-2.366,9.932-5.711,13.271c-3.344,3.338-8.152,4.664-13.282,5.689
			c1.29-0.865,2.548-1.771,3.749-2.695C122.983,130.938,125.559,129.533,127.507,127.59z M120.481,131.158
			c3.905-3.141,7.465-6.695,10.606-10.594c-0.025,0.078-0.054,0.145-0.08,0.219c-0.111,0.311-0.223,0.615-0.341,0.91
			c-0.048,0.121-0.1,0.234-0.148,0.355c-0.1,0.234-0.2,0.469-0.304,0.697c-0.06,0.123-0.118,0.246-0.178,0.369
			c-0.102,0.205-0.204,0.41-0.31,0.609c-0.063,0.123-0.129,0.238-0.196,0.357c-0.105,0.191-0.216,0.375-0.327,0.559
			c-0.068,0.109-0.138,0.223-0.208,0.33c-0.118,0.182-0.237,0.357-0.36,0.529c-0.07,0.098-0.139,0.195-0.211,0.291
			c-0.138,0.184-0.279,0.359-0.423,0.533c-0.062,0.074-0.121,0.152-0.186,0.225c-0.209,0.242-0.425,0.479-0.649,0.699
			c-0.223,0.225-0.457,0.439-0.698,0.646c-0.081,0.07-0.167,0.139-0.252,0.207c-0.163,0.135-0.326,0.268-0.497,0.395
			c-0.111,0.084-0.227,0.164-0.34,0.244c-0.153,0.107-0.308,0.215-0.468,0.316c-0.129,0.086-0.262,0.168-0.396,0.248
			c-0.155,0.094-0.313,0.188-0.477,0.279c-0.144,0.082-0.29,0.162-0.44,0.24c-0.163,0.088-0.33,0.172-0.501,0.254
			c-0.156,0.074-0.312,0.152-0.473,0.225c-0.186,0.086-0.377,0.166-0.568,0.246c-0.156,0.068-0.309,0.133-0.47,0.197
			c-0.294,0.117-0.597,0.229-0.907,0.34C120.614,131.107,120.55,131.133,120.481,131.158z M69.357,146.602
			c0.302,0.141,0.604,0.281,0.899,0.408c1.936,0.816,3.743,1.283,5.521,1.424c0.03,0.002,0.059,0.01,0.088,0.01
			c0.23,0.02,0.459,0.02,0.688,0.025c0.131,0.006,0.26,0.018,0.391,0.018h0.009c0.357,0,0.717-0.016,1.076-0.041
			c0.073-0.004,0.146-0.018,0.221-0.025c0.288-0.023,0.576-0.051,0.865-0.094c0.056-0.008,0.111-0.023,0.167-0.031
			c0.311-0.047,0.62-0.1,0.932-0.17c0.056-0.012,0.113-0.031,0.169-0.043c0.314-0.072,0.629-0.148,0.948-0.24
			c0.055-0.018,0.11-0.037,0.164-0.053c0.323-0.098,0.646-0.199,0.975-0.316c0.068-0.023,0.141-0.057,0.211-0.082
			c0.315-0.115,0.632-0.236,0.954-0.371c0.096-0.043,0.195-0.09,0.292-0.131c0.299-0.131,0.6-0.264,0.904-0.41
			c0.144-0.068,0.292-0.146,0.438-0.221c0.257-0.127,0.513-0.252,0.774-0.395c1.541-0.199,3.07-0.449,4.563-0.744
			c-4.204,2.814-8.71,5.385-13.648,5.385v0.24l-0.017-0.24c-4.945-0.004-9.451-2.582-13.655-5.406
			c1.484,0.295,3.012,0.547,4.559,0.75c0.418,0.223,0.83,0.434,1.235,0.629C69.173,146.52,69.264,146.559,69.357,146.602z
			 M69.239,146.02c2.646,0.297,5.251,0.447,7.761,0.447c2.479,0,5.049-0.146,7.654-0.434c-0.005,0-0.008,0.002-0.011,0.004
			c-0.005,0.002-0.009,0.004-0.012,0.004c-0.372,0.178-0.737,0.344-1.099,0.498c-0.108,0.045-0.212,0.084-0.319,0.127
			c-0.257,0.105-0.511,0.207-0.763,0.299c-0.126,0.047-0.251,0.088-0.377,0.131c-0.229,0.076-0.46,0.154-0.687,0.223
			c-0.13,0.037-0.256,0.074-0.385,0.109c-0.222,0.062-0.444,0.119-0.664,0.168c-0.125,0.031-0.249,0.061-0.374,0.088
			c-0.225,0.047-0.45,0.086-0.675,0.123c-0.114,0.018-0.228,0.039-0.341,0.055c-0.245,0.035-0.49,0.059-0.734,0.08
			c-0.091,0.008-0.182,0.021-0.271,0.029c-0.333,0.021-0.667,0.035-1,0.035h-0.004c-0.325,0-0.651-0.014-0.977-0.035
			c-0.126-0.012-0.254-0.029-0.381-0.039c-0.203-0.02-0.405-0.041-0.609-0.07c-0.149-0.02-0.3-0.045-0.45-0.072
			c-0.184-0.029-0.367-0.064-0.551-0.102c-0.161-0.033-0.321-0.07-0.482-0.109c-0.18-0.043-0.361-0.088-0.542-0.139
			c-0.163-0.045-0.326-0.092-0.49-0.143c-0.189-0.059-0.379-0.121-0.57-0.186c-0.158-0.055-0.317-0.107-0.477-0.164
			c-0.22-0.082-0.444-0.174-0.667-0.264c-0.132-0.053-0.262-0.102-0.396-0.158C69.983,146.369,69.614,146.201,69.239,146.02z
			 M22.859,121.896c0.053,0.135,0.112,0.258,0.167,0.387c0.106,0.25,0.211,0.5,0.322,0.738c0.041,0.086,0.085,0.166,0.126,0.252
			c0.82,1.686,1.783,3.074,2.938,4.232c1.682,1.684,3.841,2.965,6.711,3.979c0.034,0.014,0.064,0.025,0.097,0.035
			c0.275,0.098,0.565,0.188,0.854,0.279c0.148,0.047,0.289,0.098,0.441,0.143c1.202,0.93,2.457,1.838,3.743,2.703
			c-5.127-1.033-9.933-2.365-13.274-5.711c-3.341-3.346-4.664-8.154-5.689-13.281c0.865,1.289,1.768,2.543,2.697,3.746
			c0.041,0.137,0.085,0.26,0.127,0.396c0.094,0.299,0.188,0.602,0.288,0.889c0.054,0.156,0.113,0.301,0.168,0.453
			C22.667,121.393,22.76,121.65,22.859,121.896z M22.842,120.479c3.138,3.906,6.694,7.467,10.593,10.609H33.43
			c-0.042-0.016-0.081-0.029-0.122-0.045c-0.347-0.123-0.686-0.25-1.011-0.379c-0.103-0.045-0.199-0.086-0.299-0.129
			c-0.257-0.105-0.511-0.215-0.756-0.328c-0.112-0.051-0.219-0.105-0.328-0.156c-0.223-0.109-0.441-0.217-0.654-0.33
			c-0.109-0.059-0.217-0.119-0.324-0.178c-0.203-0.115-0.401-0.23-0.593-0.35c-0.101-0.064-0.203-0.125-0.3-0.189
			c-0.195-0.125-0.383-0.256-0.568-0.389c-0.084-0.061-0.171-0.119-0.254-0.182c-0.207-0.152-0.405-0.314-0.6-0.479
			c-0.051-0.043-0.105-0.084-0.156-0.125c-0.247-0.215-0.485-0.438-0.712-0.664c-0.228-0.229-0.448-0.467-0.661-0.715
			c-0.042-0.051-0.083-0.102-0.124-0.15c-0.164-0.195-0.324-0.395-0.479-0.605c-0.063-0.084-0.124-0.172-0.186-0.26
			c-0.129-0.18-0.255-0.363-0.378-0.553c-0.068-0.105-0.136-0.215-0.202-0.324c-0.112-0.182-0.222-0.369-0.328-0.561
			c-0.067-0.119-0.134-0.238-0.199-0.361c-0.103-0.195-0.203-0.395-0.301-0.598c-0.062-0.127-0.125-0.252-0.184-0.387
			c-0.101-0.217-0.198-0.447-0.294-0.678c-0.051-0.125-0.105-0.244-0.156-0.371c-0.124-0.309-0.243-0.633-0.359-0.965
			c-0.018-0.053-0.039-0.102-0.057-0.156C22.844,120.482,22.843,120.48,22.842,120.479z M7.971,84.654
			c-0.001-0.002-0.003-0.004-0.004-0.008c-0.014-0.027-0.025-0.057-0.039-0.084c-0.166-0.348-0.321-0.688-0.465-1.027
			c-0.048-0.115-0.09-0.223-0.136-0.338c-0.101-0.248-0.201-0.498-0.29-0.742c-0.048-0.133-0.091-0.264-0.136-0.396
			c-0.077-0.221-0.149-0.443-0.216-0.664c-0.041-0.137-0.079-0.271-0.116-0.408c-0.059-0.213-0.113-0.424-0.162-0.635
			c-0.032-0.135-0.063-0.268-0.09-0.402c-0.045-0.213-0.083-0.428-0.118-0.639c-0.02-0.127-0.042-0.252-0.06-0.375
			c-0.033-0.232-0.056-0.467-0.077-0.697c-0.009-0.101-0.022-0.203-0.029-0.302c-0.023-0.333-0.036-0.662-0.036-0.993
			c0.001-0.333,0.015-0.662,0.038-0.995c0.008-0.099,0.021-0.198,0.03-0.297c0.021-0.233,0.045-0.467,0.079-0.702
			c0.018-0.123,0.04-0.251,0.062-0.375c0.035-0.211,0.073-0.421,0.117-0.632c0.029-0.138,0.061-0.275,0.093-0.413
			c0.049-0.207,0.103-0.413,0.16-0.622c0.039-0.139,0.079-0.282,0.122-0.422c0.064-0.211,0.136-0.427,0.21-0.643
			c0.047-0.139,0.093-0.276,0.145-0.414c0.086-0.238,0.183-0.475,0.28-0.713c0.049-0.122,0.095-0.243,0.146-0.363
			c0.151-0.355,0.312-0.712,0.487-1.075c0.005-0.008,0.009-0.02,0.014-0.03c0.002-0.002,0.003-0.007,0.006-0.01
			c-0.299,2.645-0.45,5.249-0.45,7.763C7.533,79.479,7.681,82.049,7.971,84.654z M7.529,69.072c-0.08,0.166-0.147,0.326-0.223,0.491
			c-0.107,0.235-0.22,0.472-0.317,0.701c-0.094,0.222-0.173,0.439-0.258,0.659c-0.065,0.168-0.137,0.339-0.197,0.505
			c-0.083,0.232-0.151,0.46-0.224,0.692c-0.047,0.147-0.102,0.299-0.146,0.446c-0.059,0.203-0.104,0.405-0.155,0.603
			c-0.043,0.171-0.093,0.345-0.13,0.513c-0.027,0.125-0.045,0.247-0.068,0.37c-0.192,0.977-0.295,1.935-0.295,2.892
			c-0.001,0.993,0.106,1.99,0.311,3.006c0.017,0.086,0.027,0.166,0.045,0.25c0.058,0.266,0.13,0.533,0.203,0.801
			c0.029,0.105,0.049,0.211,0.081,0.316c0.072,0.252,0.161,0.51,0.246,0.766c0.042,0.123,0.076,0.246,0.122,0.373
			c0.084,0.238,0.185,0.482,0.282,0.725c0.058,0.15,0.109,0.293,0.172,0.441c0.091,0.219,0.195,0.438,0.295,0.656
			c0.082,0.184,0.158,0.363,0.247,0.547c0.083,0.174,0.18,0.352,0.268,0.527c0.116,0.229,0.225,0.457,0.351,0.689
			c0.203,1.559,0.452,3.088,0.743,4.562c-2.818-4.205-5.387-8.715-5.383-13.662c0.003-4.945,2.581-9.453,5.407-13.659
			c-0.298,1.495-0.55,3.027-0.753,4.567c-0.007,0.013-0.013,0.027-0.021,0.042C7.918,68.29,7.716,68.683,7.529,69.072z
			 M33.324,22.403c-0.315,0.11-0.614,0.226-0.913,0.341c-0.096,0.037-0.199,0.072-0.293,0.108c-0.371,0.149-0.726,0.306-1.07,0.465
			c-0.018,0.008-0.038,0.016-0.055,0.024c-0.693,0.323-1.334,0.673-1.932,1.046c-0.026,0.018-0.057,0.033-0.084,0.049
			c-0.22,0.141-0.428,0.288-0.635,0.435c-0.086,0.061-0.178,0.118-0.261,0.179c-0.084,0.062-0.16,0.128-0.242,0.192
			c-0.478,0.368-0.929,0.755-1.345,1.169c-0.724,0.723-1.374,1.536-1.96,2.454c-0.004,0.004-0.008,0.011-0.012,0.018
			c-0.161,0.254-0.313,0.518-0.465,0.787c-0.034,0.062-0.072,0.118-0.105,0.179c-0.121,0.224-0.236,0.46-0.352,0.694
			c-0.059,0.119-0.121,0.229-0.178,0.352c-0.081,0.171-0.156,0.356-0.233,0.533c-0.087,0.198-0.177,0.392-0.261,0.601
			c-0.042,0.103-0.081,0.218-0.122,0.325c-0.114,0.291-0.229,0.585-0.336,0.896c-0.01,0.029-0.019,0.062-0.029,0.093
			c-0.131,0.379-0.259,0.768-0.382,1.172c-0.932,1.204-1.838,2.458-2.702,3.741c1.037-5.127,2.369-9.933,5.713-13.271
			c3.345-3.342,8.152-4.665,13.281-5.692c-1.289,0.867-2.544,1.769-3.748,2.7c-0.139,0.04-0.266,0.086-0.401,0.128
			C33.905,22.211,33.606,22.304,33.324,22.403z M33.519,22.843c-3.902,3.138-7.462,6.693-10.607,10.592
			c0.028-0.08,0.06-0.155,0.087-0.235c0.109-0.306,0.22-0.604,0.334-0.893c0.048-0.118,0.099-0.233,0.147-0.35
			c0.101-0.238,0.201-0.477,0.307-0.704c0.057-0.124,0.116-0.242,0.174-0.362c0.102-0.211,0.206-0.42,0.313-0.62
			c0.062-0.119,0.126-0.232,0.189-0.346c0.11-0.197,0.223-0.389,0.337-0.574c0.065-0.107,0.131-0.214,0.198-0.315
			c0.122-0.188,0.248-0.371,0.376-0.55c0.064-0.091,0.127-0.182,0.194-0.272c0.148-0.195,0.301-0.387,0.457-0.571
			c0.05-0.061,0.099-0.126,0.15-0.184c0.212-0.243,0.43-0.481,0.657-0.707c0.226-0.226,0.462-0.445,0.706-0.656
			c0.067-0.056,0.138-0.11,0.206-0.167c0.178-0.147,0.358-0.292,0.545-0.433c0.099-0.074,0.202-0.144,0.304-0.218
			c0.166-0.118,0.334-0.233,0.508-0.347c0.118-0.075,0.238-0.15,0.359-0.224c0.17-0.104,0.343-0.205,0.521-0.304
			c0.13-0.075,0.262-0.147,0.397-0.218c0.182-0.098,0.37-0.19,0.56-0.283c0.138-0.067,0.274-0.134,0.417-0.2
			c0.209-0.096,0.427-0.188,0.646-0.278c0.132-0.056,0.261-0.113,0.396-0.168c0.33-0.131,0.67-0.257,1.021-0.38
			c0.031-0.01,0.06-0.022,0.092-0.034C33.515,22.844,33.517,22.843,33.519,22.843z M84.348,7.264
			c-0.204-0.093-0.412-0.192-0.613-0.277c-0.171-0.072-0.337-0.131-0.506-0.198c-0.221-0.088-0.442-0.179-0.661-0.258
			c-0.154-0.054-0.307-0.099-0.461-0.15c-0.226-0.075-0.454-0.155-0.678-0.219c-0.153-0.043-0.303-0.077-0.456-0.117
			c-0.219-0.056-0.44-0.119-0.659-0.167c-0.166-0.038-0.333-0.062-0.499-0.093c-0.199-0.038-0.4-0.082-0.6-0.11
			c-0.186-0.027-0.369-0.04-0.553-0.059c-0.179-0.022-0.357-0.048-0.536-0.061c-0.362-0.027-0.722-0.04-1.082-0.04
			c-0.357,0-0.716,0.013-1.075,0.04c-0.19,0.013-0.382,0.04-0.573,0.061c-0.17,0.021-0.339,0.032-0.509,0.058
			c-0.265,0.038-0.534,0.094-0.802,0.146c-0.097,0.021-0.194,0.032-0.292,0.054c-0.286,0.064-0.575,0.141-0.865,0.221
			c-0.083,0.021-0.165,0.039-0.248,0.062c-0.271,0.077-0.549,0.173-0.825,0.267c-0.104,0.035-0.207,0.062-0.312,0.099
			c-0.25,0.09-0.506,0.195-0.761,0.296c-0.136,0.056-0.268,0.101-0.405,0.158c-0.206,0.086-0.416,0.187-0.625,0.282
			c-0.193,0.088-0.383,0.168-0.579,0.261c-0.138,0.067-0.281,0.144-0.421,0.214c-0.263,0.131-0.523,0.259-0.792,0.403
			c-1.55,0.203-3.08,0.451-4.563,0.742c4.204-2.813,8.71-5.383,13.663-5.383c4.945,0.005,9.452,2.583,13.658,5.407
			c-1.485-0.294-3.016-0.547-4.566-0.752c-0.234-0.126-0.463-0.238-0.693-0.353c-0.174-0.09-0.351-0.186-0.521-0.267
			C84.735,7.435,84.544,7.354,84.348,7.264z M84.765,7.982c-2.646-0.299-5.252-0.451-7.764-0.451c-2.474,0-5.043,0.148-7.655,0.439
			c0.001,0,0.003-0.003,0.004-0.003c0.038-0.018,0.074-0.032,0.113-0.05c0.336-0.163,0.669-0.313,0.997-0.451
			c0.119-0.053,0.236-0.098,0.354-0.146c0.244-0.099,0.487-0.195,0.727-0.283c0.135-0.048,0.268-0.093,0.401-0.139
			c0.22-0.074,0.44-0.146,0.658-0.211c0.137-0.043,0.274-0.082,0.411-0.12c0.211-0.056,0.421-0.112,0.631-0.16
			c0.136-0.03,0.272-0.064,0.407-0.091c0.211-0.045,0.421-0.083,0.631-0.115c0.128-0.022,0.256-0.045,0.385-0.064
			c0.226-0.03,0.451-0.055,0.676-0.074c0.108-0.011,0.217-0.025,0.325-0.032c0.331-0.024,0.66-0.035,0.988-0.035h0.003
			c0.33,0,0.66,0.011,0.991,0.037c0.104,0.006,0.206,0.021,0.309,0.029c0.231,0.021,0.461,0.045,0.692,0.078
			c0.123,0.016,0.248,0.04,0.372,0.061c0.214,0.035,0.428,0.073,0.646,0.118c0.131,0.027,0.262,0.058,0.393,0.09
			c0.214,0.049,0.43,0.105,0.645,0.163c0.133,0.04,0.266,0.077,0.399,0.117c0.222,0.069,0.447,0.142,0.673,0.221
			c0.129,0.043,0.258,0.084,0.388,0.134c0.246,0.088,0.495,0.188,0.745,0.291c0.112,0.046,0.224,0.089,0.337,0.136
			c0.347,0.149,0.698,0.309,1.054,0.48c0.02,0.008,0.037,0.016,0.055,0.024C84.758,7.979,84.762,7.979,84.765,7.982z M130.65,30.973
			c-0.016-0.035-0.035-0.067-0.051-0.102c-0.153-0.322-0.31-0.638-0.475-0.938c-0.038-0.068-0.079-0.131-0.118-0.2
			c-0.145-0.261-0.294-0.52-0.448-0.763c-0.05-0.079-0.103-0.147-0.151-0.224c-0.15-0.227-0.302-0.456-0.46-0.67
			c-0.004-0.005-0.005-0.006-0.008-0.011c-0.419-0.566-0.867-1.087-1.35-1.572c-0.48-0.479-1.001-0.927-1.564-1.348
			c-0.007-0.003-0.012-0.008-0.018-0.013c-0.166-0.123-0.345-0.238-0.52-0.356c-0.126-0.085-0.245-0.174-0.376-0.259
			c-0.12-0.075-0.251-0.147-0.376-0.221c-0.196-0.118-0.388-0.238-0.594-0.349c-0.101-0.056-0.211-0.105-0.314-0.16
			c-0.239-0.126-0.478-0.251-0.729-0.371c-0.093-0.043-0.193-0.083-0.289-0.126c-0.274-0.123-0.55-0.248-0.84-0.365
			c-0.085-0.034-0.178-0.065-0.262-0.099c-0.312-0.122-0.623-0.243-0.952-0.357c-0.094-0.033-0.196-0.064-0.292-0.096
			c-0.319-0.107-0.641-0.214-0.977-0.317c-1.211-0.934-2.464-1.839-3.743-2.701c5.129,1.037,9.935,2.367,13.273,5.711
			c3.342,3.349,4.663,8.153,5.69,13.282c-0.864-1.289-1.768-2.544-2.697-3.747C131.607,33.257,131.158,32.056,130.65,30.973z
			 M131.157,33.518c-3.14-3.902-6.695-7.464-10.591-10.607c0.07,0.024,0.134,0.053,0.202,0.075c0.314,0.114,0.623,0.226,0.918,0.344
			c0.133,0.053,0.256,0.108,0.384,0.163c0.227,0.094,0.45,0.19,0.667,0.29c0.133,0.061,0.262,0.123,0.392,0.188
			c0.201,0.098,0.397,0.195,0.589,0.297c0.126,0.067,0.249,0.136,0.37,0.203c0.188,0.105,0.371,0.213,0.55,0.323
			c0.111,0.069,0.225,0.139,0.334,0.209c0.184,0.12,0.36,0.243,0.534,0.365c0.095,0.067,0.19,0.134,0.281,0.203
			c0.196,0.147,0.387,0.299,0.573,0.457c0.06,0.048,0.121,0.096,0.179,0.144c0.246,0.214,0.482,0.434,0.709,0.661
			c0.227,0.224,0.444,0.462,0.654,0.707c0.055,0.061,0.105,0.131,0.16,0.193c0.15,0.184,0.3,0.366,0.443,0.56
			c0.07,0.093,0.136,0.19,0.205,0.287c0.123,0.172,0.244,0.35,0.364,0.534c0.068,0.106,0.137,0.218,0.204,0.328
			c0.113,0.182,0.224,0.37,0.33,0.563c0.065,0.117,0.13,0.232,0.191,0.35c0.109,0.205,0.214,0.416,0.318,0.63
			c0.054,0.115,0.11,0.227,0.164,0.344c0.113,0.25,0.224,0.507,0.332,0.768c0.038,0.091,0.078,0.182,0.117,0.278
			C130.879,32.742,131.021,33.123,131.157,33.518z M114.449,16.428c6.188,1.174,12.587,2.385,16.703,6.508
			c4.116,4.123,5.316,10.523,6.479,16.714c0.35,1.863,0.706,3.757,1.144,5.604c-1.026-1.993-2.146-3.944-3.37-5.842
			c-1.08-5.633-2.36-10.99-6.047-14.683c-3.684-3.691-9.042-4.98-14.673-6.071c-1.898-1.228-3.849-2.351-5.84-3.381
			C110.692,15.716,112.586,16.076,114.449,16.428z M103.337,13.559c1.021,0.424,2.097,0.782,3.196,1.104
			c2.351,1.116,4.647,2.362,6.874,3.752l-0.324-0.064c-3.631-0.688-7.385-1.397-10.601-2.733c-3.038-1.262-5.935-3.272-9.003-5.399
			c-0.153-0.105-0.307-0.212-0.46-0.32c2.51,0.597,4.97,1.342,7.381,2.21C101.374,12.652,102.354,13.149,103.337,13.559z
			 M60.236,7.862c5.253-3.629,10.685-7.384,16.827-7.384c6.134,0.008,11.562,3.771,16.814,7.413
			c1.479,1.023,2.982,2.064,4.504,3.019c-2.109-0.681-4.252-1.268-6.43-1.748c-4.539-3.11-9.43-6.141-14.907-6.144
			c-5.455,0-10.344,3.019-14.885,6.12c-2.177,0.474-4.319,1.057-6.428,1.735C57.252,9.922,58.757,8.884,60.236,7.862z
			 M47.568,14.616c1.102-0.32,2.176-0.678,3.198-1.1c0.984-0.408,1.966-0.904,2.942-1.446c2.414-0.867,4.875-1.605,7.385-2.199
			c-0.153,0.106-0.304,0.209-0.457,0.315c-3.072,2.124-5.975,4.131-9.019,5.391c-3.208,1.327-6.954,2.029-10.575,2.71
			c-0.118,0.022-0.234,0.043-0.352,0.067C42.919,16.97,45.216,15.726,47.568,14.616z M16.43,39.552
			c1.172-6.188,2.384-12.588,6.507-16.703c4.124-4.117,10.524-5.319,16.715-6.48c1.863-0.35,3.757-0.708,5.603-1.144
			c-1.992,1.027-3.943,2.145-5.843,3.372c-5.632,1.081-10.991,2.36-14.682,6.048c-3.69,3.683-4.98,9.039-6.071,14.67
			c-1.229,1.898-2.35,3.848-3.381,5.839C15.717,43.31,16.077,41.414,16.43,39.552z M12.109,53.602
			c0.544-0.976,1.042-1.956,1.45-2.939c0.425-1.021,0.784-2.095,1.105-3.197c1.116-2.35,2.362-4.646,3.749-6.871
			c-0.021,0.11-0.042,0.221-0.063,0.333c-0.688,3.629-1.397,7.377-2.732,10.589c-1.263,3.041-3.271,5.935-5.396,9.002
			c-0.108,0.153-0.214,0.309-0.322,0.462C10.497,58.473,11.24,56.013,12.109,53.602z M7.863,93.766
			C4.232,88.508,0.476,83.074,0.48,76.94c0.006-6.136,3.77-11.564,7.41-16.816c1.026-1.478,2.066-2.981,3.021-4.502
			c-0.681,2.108-1.269,4.248-1.746,6.424c-3.113,4.542-6.144,9.433-6.148,14.896S6.036,87.297,9.139,91.84
			c0.474,2.18,1.06,4.32,1.736,6.432C9.924,96.75,8.887,95.246,7.863,93.766z M13.517,103.234c-0.407-0.984-0.903-1.967-1.447-2.941
			c-0.866-2.414-1.605-4.875-2.198-7.385c0.108,0.158,0.218,0.316,0.327,0.473c2.12,3.068,4.121,5.967,5.377,9.002
			c1.328,3.213,2.033,6.961,2.714,10.584c0.021,0.115,0.042,0.229,0.064,0.344c-1.384-2.229-2.625-4.525-3.738-6.877
			C14.296,105.334,13.939,104.256,13.517,103.234z M39.554,137.572c-6.188-1.174-12.588-2.385-16.704-6.508
			s-5.318-10.523-6.48-16.713c-0.35-1.863-0.707-3.758-1.144-5.605c1.027,1.994,2.146,3.943,3.372,5.842
			c1.08,5.633,2.36,10.99,6.047,14.684c3.686,3.691,9.042,4.982,14.672,6.072c1.897,1.229,3.847,2.35,5.838,3.379
			C43.308,138.283,41.416,137.926,39.554,137.572z M50.664,140.441c-1.022-0.426-2.097-0.781-3.199-1.104
			c-2.351-1.117-4.646-2.361-6.872-3.752l0.314,0.062c3.635,0.686,7.393,1.398,10.61,2.734c3.041,1.266,5.94,3.275,9.008,5.4
			c0.151,0.107,0.304,0.211,0.456,0.316c-2.508-0.596-4.968-1.338-7.381-2.207C52.626,141.348,51.647,140.852,50.664,140.441z
			 M93.765,146.139c-5.253,3.629-10.685,7.383-16.812,7.383v0.238l-0.013-0.238c-6.135-0.008-11.565-3.771-16.817-7.412
			c-1.479-1.025-2.982-2.066-4.501-3.02c2.107,0.682,4.249,1.268,6.426,1.748c4.541,3.111,9.431,6.143,14.893,6.146h0.018
			c5.456,0,10.344-3.02,14.883-6.123c2.178-0.473,4.32-1.057,6.43-1.734C96.751,144.078,95.245,145.115,93.765,146.139z
			 M106.435,139.385c-1.102,0.318-2.178,0.678-3.2,1.1c-0.983,0.406-1.964,0.902-2.939,1.445c-2.414,0.867-4.876,1.605-7.386,2.199
			c0.158-0.109,0.314-0.217,0.473-0.328c3.067-2.119,5.965-4.121,9.002-5.377c3.216-1.33,6.969-2.033,10.599-2.715
			c0.109-0.021,0.219-0.041,0.328-0.061C111.082,137.029,108.784,138.273,106.435,139.385z M137.57,114.451
			c-1.172,6.188-2.384,12.586-6.506,16.701c-4.123,4.115-10.523,5.318-16.713,6.48c-1.864,0.35-3.76,0.707-5.605,1.145
			c1.991-1.027,3.943-2.146,5.842-3.373c5.635-1.082,10.995-2.363,14.685-6.047c3.69-3.686,4.98-9.043,6.07-14.672
			c1.229-1.898,2.353-3.852,3.384-5.844C138.284,110.688,137.925,112.586,137.57,114.451z M141.888,100.408
			c-0.543,0.973-1.038,1.949-1.445,2.928c-0.423,1.02-0.78,2.09-1.102,3.191c-1.117,2.35-2.364,4.65-3.753,6.879l0.062-0.328
			c0.688-3.629,1.399-7.383,2.735-10.594c1.26-3.035,3.264-5.928,5.387-8.99c0.109-0.158,0.219-0.314,0.328-0.473
			C143.502,95.529,142.758,97.994,141.888,100.408z M146.111,93.875c-1.027,1.479-2.069,2.988-3.024,4.508
			c0.682-2.107,1.27-4.25,1.748-6.428c3.112-4.543,6.145-9.434,6.149-14.896c0.003-5.463-3.02-10.355-6.122-14.899
			c-0.475-2.177-1.059-4.318-1.735-6.428c0.95,1.52,1.987,3.022,3.01,4.502c3.632,5.257,7.389,10.693,7.384,16.829
			C153.515,83.195,149.751,88.625,146.111,93.875z"/>
	</g>
</g>
</svg>
